<svg xmlns="http://www.w3.org/2000/svg" version="1.1" xmlns:xlink="http://www.w3.org/1999/xlink" xmlns:svgjs="http://svgjs.dev/svgjs" width="128" height="128" viewBox="0 0 128 128"><g transform="matrix(0.8046875,0,0,0.8046875,12.672659644881875,8.297454637096777)"><svg viewBox="0 0 143 155" data-background-color="#111111" preserveAspectRatio="xMidYMid meet" height="138" width="128" xmlns="http://www.w3.org/2000/svg" xmlns:xlink="http://www.w3.org/1999/xlink"><g id="tight-bounds" transform="matrix(1,0,0,1,-0.23971193415638936,0.25)"><svg viewBox="0 0 143.47942386831275 154.5" height="154.5" width="143.47942386831275"><g><svg viewBox="0 0 143.47942386831275 154.5" height="154.5" width="143.47942386831275"><g><svg viewBox="0 0 143.47942386831275 154.5" height="154.5" width="143.47942386831275"><g id="textblocktransform"><svg viewBox="0 0 143.47942386831275 154.5" height="154.5" width="143.47942386831275" id="textblock"><g><svg viewBox="0 0 143.47942386831275 154.5" height="154.5" width="143.47942386831275"><g transform="matrix(1,0,0,1,0,0)"><svg width="143.47942386831275" viewBox="3.7 -36.4 33.849999999999994 36.45" height="154.5" data-palette-color="#ffffff"><path d="M3.7-36.4L10.45-36.4 19.3-12.75Q19.75-11.5 20.18-10.3 20.6-9.1 21.05-7.55L21.05-7.55Q21.45-9.05 21.85-10.23 22.25-11.4 22.7-12.6L22.7-12.6 31.5-36.4 37.55-36.4 37.55 0 32.95 0 32.95-26.35Q32.95-27.25 33-28.1 33.05-28.95 33.1-30L33.1-30Q32.8-29.2 32.45-28.35 32.1-27.5 31.8-26.65L31.8-26.65 22 0.05 19.2 0.05 9.3-26.9Q9.05-27.65 8.7-28.48 8.35-29.3 8.1-30L8.1-30Q8.2-29.05 8.22-28.25 8.25-27.45 8.25-26.6L8.25-26.6 8.25 0 4.45 0 4.45-33.1 3.7-36.4Z" opacity="1" transform="matrix(1,0,0,1,0,0)" fill="#ffffff" class="undefined-text-0" data-fill-palette-color="primary" id="text-0"></path></svg></g></svg></g></svg></g></svg></g></svg></g><defs></defs></svg><rect width="143.47942386831275" height="154.5" fill="none" stroke="none" visibility="hidden"></rect></g></svg></g></svg>