<svg xmlns="http://www.w3.org/2000/svg" version="1.1" xmlns:xlink="http://www.w3.org/1999/xlink" xmlns:svgjs="http://svgjs.dev/svgjs" width="1000" height="113" viewBox="0 0 1000 113"><g transform="matrix(1,0,0,1,-0.6060605540722008,-0.31706777570665423)"><svg viewBox="0 0 396 45" data-background-color="#111111" preserveAspectRatio="xMidYMid meet" height="113" width="1000" xmlns="http://www.w3.org/2000/svg" xmlns:xlink="http://www.w3.org/1999/xlink"><g id="tight-bounds" transform="matrix(1,0,0,1,0.24000002058744485,0.12626592837875705)"><svg viewBox="0 0 395.52 44.747468143242465" height="44.747468143242465" width="395.52"><g><svg viewBox="0 0 455.9107982687468 51.5798288877705" height="44.747468143242465" width="395.52"><g transform="matrix(1,0,0,1,0,7.128616004026171)"><svg viewBox="0 0 395.52 37.32259687971816" height="37.32259687971816" width="395.52"><g id="textblocktransform"><svg viewBox="0 0 395.52 37.32259687971816" height="37.32259687971816" width="395.52" id="textblock"><g><svg viewBox="0 0 395.52 37.32259687971816" height="37.32259687971816" width="395.52"><g transform="matrix(1,0,0,1,0,0)"><svg width="395.52" viewBox="3.700000047683716 -36.900001525878906 397.3699951171875 37.5" height="37.32259687971816" data-palette-color="#ffffff"><path d="M3.7-36.4L10.45-36.4 19.3-12.75Q19.75-11.5 20.18-10.3 20.6-9.1 21.05-7.55L21.05-7.55Q21.45-9.05 21.85-10.23 22.25-11.4 22.7-12.6L22.7-12.6 31.5-36.4 37.55-36.4 37.55 0 32.95 0 32.95-26.35Q32.95-27.25 33-28.1 33.05-28.95 33.1-30L33.1-30Q32.8-29.2 32.45-28.35 32.1-27.5 31.8-26.65L31.8-26.65 22 0.05 19.2 0.05 9.3-26.9Q9.05-27.65 8.7-28.48 8.35-29.3 8.1-30L8.1-30Q8.2-29.05 8.22-28.25 8.25-27.45 8.25-26.6L8.25-26.6 8.25 0 4.45 0 4.45-33.1 3.7-36.4ZM46.2-33.1L45.5-36.4 67.35-36.4 67.35-32.95 50.85-32.95 50.85-20.4 63.65-20.4 63.65-17 50.85-17 50.85-3.45 67.35-3.45 67.35 0 46.2 0 46.2-33.1ZM73.6-33.1L72.9-36.4 83.75-36.4Q87.2-36.4 90-35.52 92.8-34.65 94.42-32.45 96.05-30.25 96.05-26.35L96.05-26.35Q96.05-24.35 95.1-22.5 94.15-20.65 92.57-19.28 91-17.9 89.1-17.3L89.1-17.3 99.3 0 93.9 0 84.5-16.35 78.25-16.35 78.25 0 73.6 0 73.6-33.1ZM83.75-32.95L78.25-32.95 78.25-19.75 82.25-19.75Q84.75-19.75 86.77-20.33 88.8-20.9 90-22.4 91.2-23.9 91.2-26.65L91.2-26.65Q91.2-28.8 90.15-30.18 89.1-31.55 87.4-32.25 85.7-32.95 83.75-32.95L83.75-32.95ZM116.79 0.6L116.79 0.6Q112.49 0.6 109.37-0.9 106.24-2.4 104.19-4.98 102.14-7.55 101.17-10.8 100.19-14.05 100.19-17.5L100.19-17.5Q100.19-21.25 101.29-24.73 102.39-28.2 104.52-30.95 106.64-33.7 109.84-35.3 113.04-36.9 117.24-36.9L117.24-36.9Q118.99-36.9 121.07-36.48 123.14-36.05 125.04-35.2 126.94-34.35 128.14-32.95L128.14-32.95 125.54-30.05Q124.09-31.65 121.67-32.52 119.24-33.4 117.14-33.4L117.14-33.4Q114.24-33.4 112.04-32.08 109.84-30.75 108.34-28.5 106.84-26.25 106.07-23.45 105.29-20.65 105.29-17.75L105.29-17.75Q105.29-13.25 106.74-9.98 108.19-6.7 110.84-4.93 113.49-3.15 117.09-3.15L117.09-3.15Q119.19-3.15 121.64-3.75 124.09-4.35 126.69-5.65L126.69-5.65 128.24-2.8Q126.79-1.75 124.77-1 122.74-0.25 120.64 0.18 118.54 0.6 116.79 0.6ZM132.64-36.4L138.14-36.4 138.14-12.2Q138.14-7.95 140.24-5.4 142.34-2.85 146.84-2.85L146.84-2.85Q151.49-2.85 153.87-5.65 156.24-8.45 156.24-12.9L156.24-12.9 156.24-36.4 160.09-36.4 160.09-12.9Q160.09-8.7 158.52-5.68 156.94-2.65 153.94-1.03 150.94 0.6 146.64 0.6L146.64 0.6Q140.39 0.6 136.89-2.65 133.39-5.9 133.39-12.2L133.39-12.2 133.39-33.1 132.64-36.4ZM168.69-33.1L167.99-36.4 178.84-36.4Q182.29-36.4 185.09-35.52 187.89-34.65 189.51-32.45 191.14-30.25 191.14-26.35L191.14-26.35Q191.14-24.35 190.19-22.5 189.24-20.65 187.66-19.28 186.09-17.9 184.19-17.3L184.19-17.3 194.39 0 188.99 0 179.59-16.35 173.34-16.35 173.34 0 168.69 0 168.69-33.1ZM178.84-32.95L173.34-32.95 173.34-19.75 177.34-19.75Q179.84-19.75 181.86-20.33 183.89-20.9 185.09-22.4 186.29-23.9 186.29-26.65L186.29-26.65Q186.29-28.8 185.24-30.18 184.19-31.55 182.49-32.25 180.79-32.95 178.84-32.95L178.84-32.95ZM195.59-36.4L200.99-36.4 209.44-22.25 217.29-36.4 221.64-36.4 211.19-18 211.19 0 206.44 0 206.44-18 195.59-36.4ZM240.08 0.6L240.08 0.6Q235.78 0.6 232.66-0.9 229.53-2.4 227.48-4.98 225.43-7.55 224.46-10.8 223.48-14.05 223.48-17.5L223.48-17.5Q223.48-21.25 224.58-24.73 225.68-28.2 227.81-30.95 229.93-33.7 233.13-35.3 236.33-36.9 240.53-36.9L240.53-36.9Q242.28-36.9 244.36-36.48 246.43-36.05 248.33-35.2 250.23-34.35 251.43-32.95L251.43-32.95 248.83-30.05Q247.38-31.65 244.96-32.52 242.53-33.4 240.43-33.4L240.43-33.4Q237.53-33.4 235.33-32.08 233.13-30.75 231.63-28.5 230.13-26.25 229.36-23.45 228.58-20.65 228.58-17.75L228.58-17.75Q228.58-13.25 230.03-9.98 231.48-6.7 234.13-4.93 236.78-3.15 240.38-3.15L240.38-3.15Q242.48-3.15 244.93-3.75 247.38-4.35 249.98-5.65L249.98-5.65 251.53-2.8Q250.08-1.75 248.06-1 246.03-0.25 243.93 0.18 241.83 0.6 240.08 0.6ZM256.63-33.1L255.93-36.4 266.78-36.4Q270.23-36.4 273.03-35.52 275.83-34.65 277.46-32.45 279.08-30.25 279.08-26.35L279.08-26.35Q279.08-24.35 278.13-22.5 277.18-20.65 275.61-19.28 274.03-17.9 272.13-17.3L272.13-17.3 282.33 0 276.93 0 267.53-16.35 261.28-16.35 261.28 0 256.63 0 256.63-33.1ZM266.78-32.95L261.28-32.95 261.28-19.75 265.28-19.75Q267.78-19.75 269.81-20.33 271.83-20.9 273.03-22.4 274.23-23.9 274.23-26.65L274.23-26.65Q274.23-28.8 273.18-30.18 272.13-31.55 270.43-32.25 268.73-32.95 266.78-32.95L266.78-32.95ZM283.53-36.4L288.93-36.4 297.38-22.25 305.23-36.4 309.58-36.4 299.13-18 299.13 0 294.38 0 294.38-18 283.53-36.4ZM315.43-33.1L314.68-36.4 325.58-36.4Q329.18-36.4 331.95-35.27 334.73-34.15 336.28-31.75 337.83-29.35 337.83-25.4L337.83-25.4Q337.83-21.75 336.18-19.3 334.53-16.85 331.78-15.63 329.03-14.4 325.63-14.4L325.63-14.4 320.08-14.4 320.08 0 315.43 0 315.43-33.1ZM325.58-32.95L320.08-32.95 320.08-17.8 325.53-17.8Q328.98-17.8 330.98-19.9 332.98-22 332.98-25.4L332.98-25.4Q332.98-28.95 331.08-30.95 329.18-32.95 325.58-32.95L325.58-32.95ZM351.87 0L351.87-32.95 341.07-32.95 341.07-36.4 367.57-36.4 367.57-32.95 356.62-32.95 356.62 0 351.87 0ZM384.92 0.55L384.92 0.55Q380.87 0.55 377.85-0.95 374.82-2.45 372.82-5.08 370.82-7.7 369.82-11.05 368.82-14.4 368.82-18.15L368.82-18.15Q368.82-21.9 369.8-25.28 370.77-28.65 372.77-31.28 374.77-33.9 377.82-35.4 380.87-36.9 384.97-36.9L384.97-36.9Q389.07-36.9 392.1-35.4 395.12-33.9 397.12-31.28 399.12-28.65 400.1-25.28 401.07-21.9 401.07-18.15L401.07-18.15Q401.07-14.4 400.07-11.03 399.07-7.65 397.07-5.05 395.07-2.45 392.05-0.95 389.02 0.55 384.92 0.55ZM384.97-2.85L384.97-2.85Q388.17-2.85 390.32-4.2 392.47-5.55 393.77-7.8 395.07-10.05 395.65-12.75 396.22-15.45 396.22-18.15L396.22-18.15Q396.22-20.85 395.65-23.55 395.07-26.25 393.77-28.48 392.47-30.7 390.3-32.05 388.12-33.4 384.97-33.4L384.97-33.4Q381.82-33.4 379.65-32.05 377.47-30.7 376.2-28.45 374.92-26.2 374.35-23.5 373.77-20.8 373.77-18.1L373.77-18.1Q373.77-15.4 374.35-12.73 374.92-10.05 376.2-7.8 377.47-5.55 379.65-4.2 381.82-2.85 384.97-2.85Z" opacity="1" transform="matrix(1,0,0,1,0,0)" fill="#ffffff" class="undefined-text-0" data-fill-palette-color="primary" id="text-0"></path></svg></g></svg></g></svg></g></svg></g><g transform="matrix(1,0,0,1,404.33096938097634,0)"><svg viewBox="0 0 51.5798288877705 51.5798288877705" height="51.5798288877705" width="51.5798288877705"><g data-palette-color="#ffffff"><rect width="14.098486562657271" height="51.5798288877705" fill="#ffffff" stroke="transparent" data-fill-palette-color="accent" x="0" fill-opacity="1"></rect><rect width="14.098486562657271" height="51.5798288877705" fill="#ffffff" stroke="transparent" data-fill-palette-color="accent" x="17.1932762959235" fill-opacity="0.75"></rect><rect width="14.098486562657271" height="51.5798288877705" fill="#ffffff" stroke="transparent" data-fill-palette-color="accent" x="34.386552591847" fill-opacity="0.5"></rect></g></svg></g></svg></g><defs></defs></svg><rect width="395.52" height="44.747468143242465" fill="none" stroke="none" visibility="hidden"></rect></g></svg></g></svg>